<svg width="60" height="60" viewBox="0 0 60 60" fill="none" xmlns="http://www.w3.org/2000/svg">
<path fill-rule="evenodd" clip-rule="evenodd" d="M15.6 6L19.2 16.8V24H21.6V16.8L25.2 6H22.8L20.4 13.2L18 6H15.6ZM28.8 10.8C27.5203 10.8 26.8922 11.0016 26.1094 11.6437C25.3594 12.2766 25.1531 12.7641 25.2 14.4V20.4C25.2 21.5953 25.3969 22.3828 26.1187 23.0812C26.8687 23.7797 27.5766 24 28.8 24C30.0797 24 30.7781 23.7797 31.5 23.0812C32.25 22.4109 32.4 21.5953 32.4 20.4V14.4C32.4 13.3406 32.2125 12.3375 31.4859 11.6672C30.7359 10.9781 29.9625 10.8 28.8 10.8ZM34.8 10.8V21.6C34.8 22.7672 35.9766 24 37.2 24C38.4234 24 39.0703 23.3859 39.6 22.8V24H42V10.8H39.6V20.4C39.5859 21.2203 38.6203 21.6 38.4 21.6C38.1516 21.6 37.2 21.5484 37.2 20.4V10.8H34.8ZM28.8 13.2C29.1609 13.2 30 13.1953 30 14.4V20.4C30 21.5625 29.1891 21.6 28.8 21.6C28.4391 21.6 27.6 21.5859 27.6 20.4V14.4C27.6 13.4203 28.1203 13.2 28.8 13.2ZM12 26.4C7.68749 26.4 4.79999 29.2594 4.79999 33.6V45C4.79999 49.3406 7.68749 52.8 12 52.8H48C52.3125 52.8 55.2 49.9406 55.2 45.6V33.6C55.2 29.2594 52.3125 26.4 48 26.4H12ZM14.4 31.2H21.6V33.6H19.2V48H16.8V33.6H14.4V31.2ZM31.2 31.2H33.6V36C33.8766 35.5687 34.2891 35.2266 34.6828 35.0344C35.0672 34.8375 35.4562 34.725 35.85 34.725C36.6281 34.725 37.2375 35.0062 37.6547 35.5312C38.0719 36.0609 38.4 36.7641 38.4 37.8V45C38.4 45.8906 38.1 46.4437 37.7062 46.9172C37.3219 47.3906 36.7453 47.9906 36 48C34.7391 48.0141 34.0641 47.3391 33.6 46.8V48H31.2V31.2ZM21.6 34.8H24V44.4C24 44.6766 24.3234 45.6094 25.2 45.6C26.175 45.5906 26.1844 44.6812 26.4 44.4V34.8H28.8V48H26.4V46.8C25.9547 47.325 25.725 47.4891 25.2234 47.7375C24.7266 48.0187 24.2203 48 23.7516 48C23.1703 48 22.5094 47.475 22.2 47.0812C21.9234 46.7203 21.6 46.35 21.6 45.6V34.8ZM43.4391 34.8C44.5781 34.8 45.3797 35.0437 45.9844 35.6812C46.6031 36.3187 46.8 37.0641 46.8 38.2641V42H42V43.8562C42 44.5266 42.0891 44.9531 42.2625 45.2062C42.4266 45.4828 42.7594 45.6047 43.2 45.6C43.6875 45.5953 43.9969 45.4969 44.1609 45.2766C44.3297 45.0797 44.4 44.5219 44.4 43.8V43.2H46.8V43.9125C46.8 45.2203 46.6969 46.1953 46.05 46.8328C45.4406 47.5031 44.4891 47.8125 43.2422 47.8125C42.1031 47.8125 41.2125 47.475 40.575 46.7812C39.9375 46.0875 39.6047 45.1359 39.6047 43.9125V38.2641C39.6047 37.1766 39.9844 36.3703 40.6828 35.6531C41.2453 35.0766 42.3 34.8 43.4391 34.8ZM34.8 36.6C34.1391 36.6 33.6094 37.1953 33.6 37.8V45C33.6094 45.3469 34.1391 45.6 34.8 45.6C35.4609 45.6 36 45.0891 36 44.4281V38.4C36 37.2 35.4609 36.6 34.8 36.6ZM43.2 37.2C42.5391 37.2 42.0094 37.7578 42 38.4V39.6H44.4V38.4C44.4 37.6641 43.8609 37.2 43.2 37.2Z" fill="white"/>
</svg>
