<svg width="66" height="66" viewBox="0 0 66 66" fill="none" xmlns="http://www.w3.org/2000/svg">
<path d="M33 2.63989C16.2598 2.63989 2.64003 16.2597 2.64003 32.9999C2.64003 38.2271 3.99039 43.3672 6.55119 47.9027L2.68887 61.6835C2.56215 62.1363 2.68491 62.622 3.01227 62.9586C3.26439 63.2187 3.60759 63.3599 3.96003 63.3599C4.06563 63.3599 4.17255 63.3467 4.27683 63.3216L18.6595 59.7589C23.0512 62.1165 27.9972 63.3599 33 63.3599C49.7403 63.3599 63.36 49.7401 63.36 32.9999C63.36 16.2597 49.7403 2.63989 33 2.63989ZM48.2724 43.713C47.623 45.5109 44.5078 47.1516 43.0109 47.3721C41.6671 47.5687 39.967 47.6532 38.1005 47.0671C36.9693 46.7107 35.5173 46.2382 33.6574 45.4449C25.839 42.1105 20.7333 34.3371 20.3425 33.8236C19.9531 33.3101 17.16 29.6511 17.16 25.864C17.16 22.0769 19.173 20.2144 19.8885 19.4435C20.6039 18.6726 21.4474 18.4799 21.9675 18.4799C22.4875 18.4799 23.0063 18.4865 23.4617 18.5076C23.9409 18.5314 24.5837 18.3268 25.216 19.8289C25.8654 21.3707 27.4243 25.1578 27.6171 25.5445C27.8124 25.93 27.9418 26.3801 27.6831 26.8936C27.4243 27.4071 27.295 27.7278 26.9043 28.1779C26.5135 28.6281 26.0859 29.1811 25.7347 29.527C25.344 29.9111 24.9388 30.3269 25.3929 31.0978C25.8469 31.8687 27.4111 34.3885 29.7291 36.4293C32.7057 39.0508 35.2176 39.8639 35.9964 40.2493C36.7752 40.6348 37.2306 40.5701 37.6847 40.0566C38.1388 39.5418 39.633 37.8087 40.1518 37.0391C40.6705 36.2695 41.1906 36.3963 41.9061 36.6537C42.6215 36.9097 46.4535 38.7709 47.2323 39.1564C48.0111 39.5418 48.5311 39.7345 48.7265 40.0553C48.9219 40.3747 48.9219 41.9165 48.2724 43.713Z" fill="white"/>
</svg>
