<svg width="66" height="66" viewBox="0 0 66 66" fill="none" xmlns="http://www.w3.org/2000/svg">
<path d="M21.9957 6.6001C13.5059 6.6001 6.60001 13.5124 6.60001 22.0044V44.0044C6.60001 52.4942 13.5123 59.4001 22.0043 59.4001H44.0043C52.4941 59.4001 59.4 52.4878 59.4 43.9958V21.9958C59.4 13.506 52.4877 6.6001 43.9957 6.6001H21.9957ZM48.4 15.4001C49.6144 15.4001 50.6 16.3857 50.6 17.6001C50.6 18.8145 49.6144 19.8001 48.4 19.8001C47.1856 19.8001 46.2 18.8145 46.2 17.6001C46.2 16.3857 47.1856 15.4001 48.4 15.4001ZM33 19.8001C40.2798 19.8001 46.2 25.7203 46.2 33.0001C46.2 40.2799 40.2798 46.2001 33 46.2001C25.7202 46.2001 19.8 40.2799 19.8 33.0001C19.8 25.7203 25.7202 19.8001 33 19.8001ZM33 24.2001C30.6661 24.2001 28.4278 25.1272 26.7775 26.7776C25.1271 28.4279 24.2 30.6662 24.2 33.0001C24.2 35.334 25.1271 37.5723 26.7775 39.2226C28.4278 40.873 30.6661 41.8001 33 41.8001C35.3339 41.8001 37.5722 40.873 39.2225 39.2226C40.8729 37.5723 41.8 35.334 41.8 33.0001C41.8 30.6662 40.8729 28.4279 39.2225 26.7776C37.5722 25.1272 35.3339 24.2001 33 24.2001Z" fill="white"/>
</svg>
