<svg width="66" height="66" viewBox="0 0 66 66" fill="none" xmlns="http://www.w3.org/2000/svg">
<path d="M23.4841 61.8234C24.4227 61.4195 25.08 60.4862 25.08 59.3999V52.2719C25.08 52.0118 25.1011 51.7413 25.1341 51.4667C25.1157 51.472 25.0985 51.4759 25.08 51.4799C25.08 51.4799 21.12 51.4799 20.328 51.4799C18.348 51.4799 16.632 50.6879 15.84 49.1039C14.916 47.3879 14.52 44.4839 12.144 42.8999C11.748 42.6359 12.012 42.2399 12.804 42.2399C13.596 42.3719 15.312 43.4279 16.368 44.8799C17.556 46.3319 18.744 47.5199 20.856 47.5199C24.1389 47.5199 25.8984 47.3549 26.9571 46.7873C28.1899 44.9538 29.8967 43.5599 31.68 43.5599V43.5269C24.1983 43.2866 19.4185 40.7998 17.193 36.9599C12.3552 37.0153 8.1431 37.4945 5.73937 37.8931C5.66281 37.4615 5.59681 37.0272 5.54005 36.5903C7.9121 36.1996 11.9328 35.7363 16.5555 35.6478C16.4076 35.2835 16.2796 34.9099 16.1713 34.5271C11.5368 34.2922 7.53722 34.4757 5.3645 34.6552C5.33809 34.2169 5.30245 33.78 5.29717 33.3365C7.47386 33.1583 11.3652 32.9801 15.8809 33.19C15.7767 32.53 15.7093 31.8555 15.7093 31.1532C15.7093 28.9092 16.5013 26.5332 17.9533 24.5532C17.2933 22.3092 16.3693 17.5572 18.2173 15.8412C21.7813 15.8412 24.2893 17.5572 25.4773 18.6132C27.72 17.6879 30.228 17.1599 33 17.1599C35.772 17.1599 38.28 17.6879 40.392 18.6119C41.58 17.5559 44.088 15.8399 47.652 15.8399C49.632 17.6879 48.576 22.4399 47.916 24.5519C49.368 26.5319 50.16 28.7759 50.028 31.1519C50.028 31.7908 49.9686 32.4072 49.8828 33.0118C54.5015 32.7847 58.4985 32.9669 60.7121 33.1464C60.7095 33.5913 60.6685 34.0255 60.6448 34.4651C58.4391 34.2829 54.3418 34.0955 49.6109 34.3476C49.4934 34.7911 49.3509 35.2228 49.1819 35.6412C53.8626 35.7019 57.9797 36.1547 60.4653 36.5507C60.4085 36.9889 60.3425 37.4232 60.2659 37.8535C57.7421 37.4496 53.4402 36.9771 48.5457 36.9533C46.3479 40.7523 41.6553 43.2299 34.32 43.519V43.5599C37.752 43.5599 40.92 48.7079 40.92 52.2719V59.3999C40.92 60.4862 41.5774 61.4195 42.5159 61.8234C54.6084 57.8212 63.36 46.4164 63.36 32.9999C63.36 16.2597 49.7416 2.63989 33 2.63989C16.2585 2.63989 2.64001 16.2597 2.64001 32.9999C2.64001 46.4164 11.3916 57.8212 23.4841 61.8234Z" fill="white"/>
</svg>
